<svg width="150" height="80" viewBox="0 0 150 80" fill="none" xmlns="http://www.w3.org/2000/svg">
<path fill-rule="evenodd" clip-rule="evenodd" d="M69.285 61.8467V55.1935H71.506C72.1755 55.1935 72.7084 55.3633 73.1073 55.7076C73.5042 56.0499 73.7033 56.5105 73.7033 57.0872C73.7033 57.476 73.6 57.8176 73.3972 58.1173C73.1925 58.4142 72.9141 58.6323 72.5602 58.7676C72.2054 58.902 71.6963 58.9692 71.0354 58.9692H70.2922V61.8467H69.285ZM71.3319 56.0418H70.2922V58.1201H71.3912C71.7987 58.1201 72.1143 58.0291 72.3344 57.8466C72.5563 57.665 72.6653 57.4034 72.6653 57.0646C72.6653 56.3834 72.2206 56.0418 71.3319 56.0418ZM76.4016 57.456C77.1057 57.456 77.6882 57.6713 78.154 58.1026C78.617 58.5323 78.8504 59.0727 78.8504 59.7249C78.8504 60.3562 78.6141 60.8813 78.1437 61.2989C77.673 61.7167 77.079 61.9248 76.3624 61.9248C75.6709 61.9248 75.0923 61.7142 74.6263 61.2889C74.1625 60.8648 73.9291 60.3344 73.9291 59.7003C73.9291 59.0583 74.1634 58.5251 74.6348 58.0973C75.1035 57.6704 75.6929 57.456 76.4016 57.456ZM76.3539 58.237C75.9158 58.237 75.5561 58.3742 75.2749 58.6467C74.9946 58.9202 74.854 59.268 74.854 59.6903C74.854 60.11 74.9975 60.4516 75.2855 60.7169C75.5732 60.982 75.9425 61.1154 76.395 61.1154C76.8436 61.1154 77.21 60.9801 77.496 60.7122C77.783 60.4434 77.9265 60.1 77.9265 59.6812C77.9265 59.2652 77.7771 58.9202 77.4788 58.6467C77.1813 58.3742 76.8054 58.237 76.3539 58.237ZM85.5253 57.466H86.5048L84.474 61.9248H84.1709L82.8116 58.8711L81.4638 61.9248H81.1586L79.1173 57.466H80.0978L81.3012 60.1246L82.4758 57.466H83.1568L84.322 60.1246L85.5253 57.466ZM90.884 59.7194H87.6364C87.6604 60.1428 87.8076 60.4788 88.0804 60.7294C88.3529 60.9801 88.7058 61.1054 89.1363 61.1054C89.7379 61.1054 90.2928 60.9303 90.8007 60.5788V61.4226C90.5203 61.5995 90.2421 61.7249 89.9647 61.8014C89.6902 61.8776 89.366 61.9158 88.9947 61.9158C88.4859 61.9158 88.0755 61.8149 87.7598 61.6142C87.4471 61.4144 87.1954 61.1445 87.0071 60.8048C86.8165 60.4669 86.722 60.0728 86.722 59.6277C86.722 58.9592 86.9209 58.4161 87.3198 57.9964C87.7167 57.5785 88.2344 57.3688 88.8713 57.3688C89.4825 57.3688 89.9723 57.5713 90.3376 57.9782C90.7013 58.3833 90.884 58.9283 90.884 59.6115V59.7194ZM87.6575 59.2027H89.9791C89.9551 58.8567 89.8469 58.5905 89.6537 58.4017C89.4588 58.2145 89.1985 58.1201 88.8713 58.1201C88.5422 58.1201 88.2755 58.2145 88.0669 58.4017C87.8573 58.5905 87.7206 58.8567 87.6575 59.2027ZM92.8459 57.466V58.4598L92.8956 58.3833C93.3374 57.7066 93.7784 57.3688 94.2224 57.3688C94.5667 57.3688 94.9264 57.535 95.3013 57.8648L94.8192 58.6267C94.5016 58.3407 94.207 58.1982 93.9354 58.1982C93.6398 58.1982 93.3854 58.3317 93.1692 58.5995C92.9539 58.8667 92.8459 59.1836 92.8459 59.5487V61.8467H91.9313V57.466H92.8459ZM97.0356 55.1935H102.893V56.0418H100.447V61.8467H99.4403V56.0418H97.0356V55.1935ZM104.38 57.456C105.084 57.456 105.667 57.6713 106.131 58.1026C106.596 58.5323 106.829 59.0727 106.829 59.7249C106.829 60.3562 106.592 60.8813 106.121 61.2989C105.651 61.7167 105.056 61.9248 104.341 61.9248C103.649 61.9248 103.07 61.7142 102.605 61.2889C102.141 60.8648 101.907 60.3344 101.907 59.7003C101.907 59.0583 102.142 58.5251 102.613 58.0973C103.083 57.6704 103.671 57.456 104.38 57.456ZM104.332 58.237C103.894 58.237 103.534 58.3742 103.253 58.6467C102.973 58.9202 102.832 59.268 102.832 59.6903C102.832 60.11 102.977 60.4516 103.264 60.7169C103.552 60.982 103.921 61.1154 104.373 61.1154C104.822 61.1154 105.188 60.9801 105.474 60.7122C105.76 60.4434 105.905 60.1 105.905 59.6812C105.905 59.2652 105.754 58.9202 105.457 58.6467C105.16 58.3742 104.784 58.237 104.332 58.237ZM110.822 55.1935H114.798V56.0418H111.83V58.071H114.695V58.9202H111.83V60.9975H114.891V61.8467H110.822V55.1935ZM119.617 58.6649V61.8467H118.702V59.3996C118.702 58.912 118.634 58.5723 118.498 58.3807C118.36 58.1873 118.121 58.091 117.777 58.091C117.588 58.091 117.413 58.1336 117.254 58.218C117.095 58.3017 116.914 58.4505 116.709 58.6649V61.8467H115.795V57.466H116.709V58.0401C117.174 57.5932 117.629 57.3688 118.074 57.3688C118.658 57.3688 119.112 57.636 119.431 58.1691C119.92 57.636 120.431 57.3688 120.963 57.3688C121.411 57.3688 121.78 57.525 122.069 57.8357C122.358 58.1482 122.504 58.6223 122.504 59.2599V61.8467H121.589V59.2418C121.589 58.8765 121.511 58.5967 121.353 58.4017C121.195 58.208 120.969 58.1101 120.675 58.1101C120.299 58.1101 119.946 58.2952 119.617 58.6649ZM123.696 64.0901V57.466H125.294C126.112 57.466 126.749 57.6604 127.204 58.0473C127.66 58.4351 127.887 58.9774 127.887 59.6712C127.887 60.3297 127.674 60.8694 127.245 61.2907C126.816 61.7142 126.27 61.9248 125.607 61.9248C125.312 61.9248 124.987 61.863 124.63 61.7395V64.0901H123.696ZM125.274 58.2761H124.63V60.972C124.91 61.1064 125.203 61.1736 125.509 61.1736C125.936 61.1736 126.285 61.0319 126.556 60.7504C126.827 60.4678 126.963 60.1056 126.963 59.6612C126.963 59.3752 126.9 59.1236 126.772 58.9039C126.643 58.6858 126.468 58.527 126.247 58.4261C126.025 58.3261 125.701 58.2761 125.274 58.2761ZM131.1 57.456C131.804 57.456 132.386 57.6713 132.852 58.1026C133.316 58.5323 133.548 59.0727 133.548 59.7249C133.548 60.3562 133.312 60.8813 132.842 61.2989C132.371 61.7167 131.776 61.9248 131.06 61.9248C130.369 61.9248 129.791 61.7142 129.325 61.2889C128.86 60.8648 128.628 60.3344 128.628 59.7003C128.628 59.0583 128.862 58.5251 129.333 58.0973C129.802 57.6704 130.392 57.456 131.1 57.456ZM131.053 58.237C130.614 58.237 130.254 58.3742 129.974 58.6467C129.692 58.9202 129.552 59.268 129.552 59.6903C129.552 60.11 129.696 60.4516 129.983 60.7169C130.271 60.982 130.641 61.1154 131.093 61.1154C131.541 61.1154 131.909 60.9801 132.194 60.7122C132.48 60.4434 132.624 60.1 132.624 59.6812C132.624 59.2652 132.475 58.9202 132.177 58.6467C131.879 58.3742 131.504 58.237 131.053 58.237ZM140.223 57.466H141.203L139.173 61.9248H138.869L137.509 58.8711L136.161 61.9248H135.857L133.816 57.466H134.795L135.999 60.1246L137.174 57.466H137.856L139.02 60.1246L140.223 57.466ZM145.582 59.7194H142.335C142.359 60.1428 142.506 60.4788 142.778 60.7294C143.051 60.9801 143.403 61.1054 143.835 61.1054C144.436 61.1054 144.991 60.9303 145.499 60.5788V61.4226C145.218 61.5995 144.939 61.7249 144.663 61.8014C144.388 61.8776 144.065 61.9158 143.692 61.9158C143.185 61.9158 142.773 61.8149 142.459 61.6142C142.145 61.4144 141.893 61.1445 141.705 60.8048C141.515 60.4669 141.421 60.0728 141.421 59.6277C141.421 58.9592 141.619 58.4161 142.018 57.9964C142.415 57.5785 142.933 57.3688 143.57 57.3688C144.18 57.3688 144.67 57.5713 145.036 57.9782C145.4 58.3833 145.582 58.9283 145.582 59.6115V59.7194ZM142.355 59.2027H144.678C144.653 58.8567 144.546 58.5905 144.353 58.4017C144.157 58.2145 143.896 58.1201 143.57 58.1201C143.241 58.1201 142.973 58.2145 142.765 58.4017C142.556 58.5905 142.418 58.8567 142.355 59.2027ZM147.544 57.466V58.4598L147.593 58.3833C148.035 57.7066 148.477 57.3688 148.921 57.3688C149.264 57.3688 149.625 57.535 150 57.8648L149.516 58.6267C149.199 58.3407 148.905 58.1982 148.633 58.1982C148.339 58.1982 148.083 58.3317 147.868 58.5995C147.652 58.8667 147.544 59.1836 147.544 59.5487V61.8467H146.63V57.466H147.544Z" fill="#D1D5DB"/>
<path fill-rule="evenodd" clip-rule="evenodd" d="M45.0658 59.5178L43.1364 62.7005C39.5514 68.3236 33.6579 74.4855 27.295 77.3486C26.635 77.6455 26.1433 77.8661 25.4843 78.1196C25.0605 78.2824 23.8361 78.6974 23.5856 78.869C36.6165 76.3403 46.2654 70.8107 54.3215 61.5714C61.0069 53.9037 67.874 41.4547 66.9099 27.3806C65.9838 13.8842 57.9297 3.7088 45.9745 0.854815C33.1882 -2.19891 23.5339 3.25631 16.5874 12.0124C16.0889 12.64 14.5412 14.769 14.3118 15.4503C23.7212 10.9786 34.9724 8.99962 44.4526 15.5393C52.7097 21.2343 55.194 32.6923 53.0464 42.6917C51.8009 48.4967 49.3475 52.9164 46.2664 57.7604C46.0042 58.1708 45.177 59.1981 45.0658 59.5178Z" fill="#E94E1A"/>
<path fill-rule="evenodd" clip-rule="evenodd" d="M12.0675 78.3305C11.1876 78.9262 7.75256 77.9027 6.86488 77.7564C8.56767 78.9025 12.1049 79.8245 14.6561 79.9598C18.5597 80.1688 20.2682 79.5266 23.5856 78.869C23.8361 78.6974 25.0605 78.2824 25.4843 78.1196C26.1433 77.8662 26.635 77.6455 27.295 77.3486C33.6579 74.4855 39.5514 68.3237 43.1364 62.7006L45.0658 59.5178C45.285 58.883 45.7833 58.021 46.0923 57.3425C48.6481 51.7448 50.5288 45.3995 49.9538 39.1702C49.6075 35.4307 48.6359 32.1101 46.9369 29.387C41.3814 20.4821 29.6654 17.1742 19.5784 21.4022C14.0745 23.7083 10.5945 27.4678 7.7162 32.1673C7.31827 32.8186 7.01411 33.5761 6.64966 34.1247C7.09159 34.0521 8.38964 33.2783 8.99229 33.0083C11.6695 31.8094 14.1901 30.9293 17.2569 30.4515C25.1513 29.2226 33.4637 31.6469 37.5025 38.0941C39.4003 41.1269 39.9368 45.4748 39.4671 49.6184C38.6311 56.9947 34.7361 64.6923 30.9299 69.0512C30.0251 70.0876 28.4917 71.7571 27.4088 72.6337C26.1367 73.6645 24.9361 74.6074 23.3216 75.5528C20.6039 77.146 15.1294 79.1134 12.0675 78.3305Z" fill="#259A3A"/>
<path fill-rule="evenodd" clip-rule="evenodd" d="M6.86484 77.7563C7.75252 77.9026 11.1876 78.9261 12.0674 78.3304C10.5754 77.907 9.77756 77.1487 9.19598 75.8634C7.59851 72.3374 8.95208 65.8849 9.85495 62.3952C10.5781 59.6005 11.3693 57.0055 12.2885 54.3131L15.0672 46.6108L4.10614 46.6355C3.43463 47.629 1.96632 53.0817 1.56552 54.6522C-0.277773 61.8757 -2.26837 74.3438 6.86484 77.7563Z" fill="#1D57A6"/>
<path fill-rule="evenodd" clip-rule="evenodd" d="M3.77325 39.7461L4.58059 40.5872C5.14783 40.114 5.70167 39.5545 6.6018 39.1485C8.51767 38.2847 10.559 38.2085 12.5085 39.0739C12.9399 39.2648 13.2737 39.4764 13.64 39.7271C14.0877 40.0349 14.2295 40.2893 14.659 40.539L15.4729 39.7461C15.0682 39.1485 13.9758 38.4238 13.1006 38.0059C10.8756 36.9421 8.40209 37.034 6.1723 37.995C5.39557 38.3301 4.13962 39.193 3.77325 39.7461Z" fill="#1D57A6"/>
<path fill-rule="evenodd" clip-rule="evenodd" d="M5.19757 41.2085L6.02308 42.0923C6.85718 41.6672 8.61833 39.7461 11.5911 41.0513C12.4607 41.4329 12.5143 41.5782 13.0729 42.0867L14.0485 41.0541C12.8662 40.2549 11.8647 39.2802 9.57849 39.2974C7.71521 39.312 6.34735 40.0377 5.19757 41.2085Z" fill="#1D57A6"/>
<path fill-rule="evenodd" clip-rule="evenodd" d="M6.77686 42.7154L7.67027 43.3893C7.76785 43.3265 7.82151 43.2811 7.89889 43.2286C8.37713 42.9033 8.93301 42.6698 9.57679 42.6573C10.8193 42.6317 11.0794 43.1458 11.8706 43.5209L12.4732 42.7154C11.1923 41.2022 8.01569 41.0703 6.77686 42.7154Z" fill="#1D57A6"/>
<path fill-rule="evenodd" clip-rule="evenodd" d="M8.16772 44.0831L9.76213 45.6001L11.0803 44.1487C10.0455 43.223 9.27825 43.3021 8.16772 44.0831Z" fill="#1D57A6"/>
<path fill-rule="evenodd" clip-rule="evenodd" d="M74.0687 41.6045C79.8424 41.085 77.9571 47.0053 75.4145 48.3195C74.2322 48.9317 73.0125 48.7592 71.53 48.7673L74.0687 41.6045ZM68.7416 50.5547C70.5495 50.6085 74.436 50.7891 75.8497 50.2215C79.9678 48.5692 81.1596 42.9071 79.0926 40.7888C77.7418 39.4046 74.4646 39.7843 72.4836 39.7571L68.7416 50.5547Z" fill="#D1D5DB"/>
<path fill-rule="evenodd" clip-rule="evenodd" d="M85.4594 51.3632C86.9037 50.9454 88.6495 52.4086 86.6226 52.7874C84.7275 53.1415 83.245 52.0036 85.4594 51.3632ZM87.7579 44.9088C89.4644 44.3666 88.8265 46.9325 87.9014 47.3103C87.0205 47.671 86.5193 47.2296 86.7029 46.313C86.853 45.5629 87.1324 45.1079 87.7579 44.9088ZM85.554 48.206C84.8318 48.3823 84.344 48.6192 84.1011 49.1533C83.7384 49.9443 84.0426 50.4312 84.5708 50.84C82.669 51.5167 82.0759 52.7637 82.9389 53.5912C84.3134 54.9092 90.4334 54.3307 89.4088 50.9144C88.9279 49.3114 86.4054 49.9599 85.9654 49.148C86.3804 48.2288 87.3438 49.343 89.3601 48.0797C90.2708 47.5084 90.6927 46.4549 90.6917 44.9688L91.7736 44.9542L92.2328 43.4121C89.6672 43.0958 85.9328 43.0577 85.0135 45.6864C84.8568 46.1352 84.7841 46.6493 84.8979 47.1469C84.9523 47.3859 85.004 47.4922 85.1323 47.6682L85.554 48.206Z" fill="#D1D5DB"/>
<path fill-rule="evenodd" clip-rule="evenodd" d="M134 48.8881C130.885 49.5331 131.444 44.9961 135.343 45.1486C135.158 45.8562 134.338 48.4414 134 48.8881ZM136.023 43.2822C133.169 43.4556 130.889 43.8453 130.047 47.0025C129.054 50.7266 132.503 50.9645 135.534 50.4822L139.251 39.7725L137.245 39.7553L136.023 43.2822Z" fill="#D1D5DB"/>
<path fill-rule="evenodd" clip-rule="evenodd" d="M106.502 45.0632C106.256 45.9952 105.869 46.9399 105.559 47.8763C105.327 48.5783 105.303 48.6157 104.661 48.8836C102.344 49.8472 102.884 47.3269 103.795 46.2024C104.406 45.4476 105.011 44.9535 106.502 45.0632ZM104.686 50.0216C104.695 50.039 104.727 50.0925 104.729 50.2087C104.73 50.2825 104.703 50.4294 104.701 50.5831L106.587 50.5766L109.1 43.4784C107.343 43.2312 106.007 43.0896 104.393 43.6728C99.6709 45.3767 99.7674 53.0509 104.686 50.0216Z" fill="#D1D5DB"/>
<path fill-rule="evenodd" clip-rule="evenodd" d="M147.412 45.0588C147.214 45.9479 146.763 46.9862 146.471 47.88C146.02 49.2658 144.501 49.2386 144.172 48.8935C143.486 48.1751 144.334 44.8669 147.412 45.0588ZM145.594 50.0215L145.618 50.5821L147.487 50.5775L150 43.5183C146.711 42.6317 143.802 43.9171 142.629 45.8398C140.954 48.5838 142.049 52.3051 145.594 50.0215Z" fill="#D1D5DB"/>
<path fill-rule="evenodd" clip-rule="evenodd" d="M120.988 50.5603L122.971 50.5703L124.257 46.9471C124.313 46.7946 124.356 46.6665 124.39 46.5574C124.579 45.9552 124.522 45.927 125.18 45.4739C126.949 44.254 127.214 45.006 126.815 46.2486L125.423 50.5822L127.295 50.5766L128.942 45.9789C129.006 45.8026 129.034 45.6545 129.056 45.5573C129.284 44.5473 129.17 43.4883 128.144 43.2958C126.973 43.0768 126.025 43.6999 125.266 44.105L125.462 43.4084L123.497 43.3756L120.988 50.5603Z" fill="#D1D5DB"/>
<path fill-rule="evenodd" clip-rule="evenodd" d="M97.7653 43.3649L96.3994 43.3812L95.7921 44.9535L97.1149 44.9651C96.8911 46.1152 93.2649 52.2833 99.3457 50.2706L99.7216 48.4222C99.4116 48.5139 98.8349 48.7973 98.5594 48.7755C97.2248 48.6701 98.8768 45.6827 99.1322 44.996L100.671 44.967L101.212 43.3884L99.7855 43.3812L100.332 41.8979L98.3077 41.8607L97.7653 43.3649Z" fill="#D1D5DB"/>
<path fill-rule="evenodd" clip-rule="evenodd" d="M116.713 50.5412L118.821 50.5765L122.632 39.7707L120.479 39.7661L116.713 50.5412Z" fill="#D1D5DB"/>
<path fill-rule="evenodd" clip-rule="evenodd" d="M108.509 50.5431L110.482 50.5775L114.271 39.7661L112.264 39.7671L108.509 50.5431Z" fill="#D1D5DB"/>
<path fill-rule="evenodd" clip-rule="evenodd" d="M79.7811 50.6329H81.7938L84.209 43.353H82.1964L79.7811 50.6329ZM84.1919 40.3756C84.7455 40.3756 85.0766 40.8734 84.9302 41.4873C84.783 42.1014 84.2146 42.5999 83.66 42.5999C83.1061 42.5999 82.7753 42.1014 82.9214 41.4873C83.0679 40.8734 83.637 40.3756 84.1919 40.3756Z" fill="#D1D5DB"/>
<path fill-rule="evenodd" clip-rule="evenodd" d="M90.8658 50.6329H92.8772L95.2927 43.353H93.28L90.8658 50.6329ZM95.2753 40.3756C95.8302 40.3756 96.1603 40.8734 96.0129 41.4873C95.8667 42.1014 95.2983 42.5999 94.7437 42.5999C94.1888 42.5999 93.8587 42.1014 94.0051 41.4873C94.1525 40.8734 94.7207 40.3756 95.2753 40.3756Z" fill="#D1D5DB"/>
<path fill-rule="evenodd" clip-rule="evenodd" d="M137.223 50.6329H139.236L141.65 43.353H139.639L137.223 50.6329ZM141.633 40.3756C142.188 40.3756 142.518 40.8734 142.371 41.4873C142.224 42.1014 141.656 42.5999 141.101 42.5999C140.547 42.5999 140.216 42.1014 140.363 41.4873C140.51 40.8734 141.078 40.3756 141.633 40.3756Z" fill="#D1D5DB"/>
<path fill-rule="evenodd" clip-rule="evenodd" d="M149.151 51.6983H90.7968V52.4224H149.151V51.6983Z" fill="#D1D5DB"/>
<path fill-rule="evenodd" clip-rule="evenodd" d="M80.2613 51.6983H68.3512V52.4224H80.2613V51.6983Z" fill="#D1D5DB"/>
</svg>
