<svg width="219" height="59" viewBox="0 0 219 59" fill="none" xmlns="http://www.w3.org/2000/svg">
<path d="M62.1275 55V46.2425H63.0885L67.041 52.892H66.5915L70.513 46.2425H71.474V55H70.4045V47.9475H70.5905L67.0565 53.8995H66.545L62.949 47.9475H63.197V55H62.1275ZM82.3934 55.093C81.6184 55.093 80.9519 54.9483 80.3939 54.659C79.8462 54.3593 79.4226 53.9253 79.1229 53.357C78.8232 52.7887 78.6734 52.0963 78.6734 51.28V46.2425H79.7894V51.249C79.7894 52.21 80.0167 52.9333 80.4714 53.419C80.9261 53.8943 81.5667 54.132 82.3934 54.132C83.2304 54.132 83.8762 53.8943 84.3309 53.419C84.7856 52.9333 85.0129 52.21 85.0129 51.249V46.2425H86.0979V51.28C86.0979 52.0963 85.9481 52.7887 85.6484 53.357C85.3591 53.9253 84.9354 54.3593 84.3774 54.659C83.8297 54.9483 83.1684 55.093 82.3934 55.093ZM93.2861 55V46.2425H94.4021V54.07H99.2846V55H93.2861ZM105.571 55V47.1725H102.486V46.2425H109.771V47.1725H106.687V55H105.571ZM115.484 55V46.2425H116.6V55H115.484ZM129.701 52.613C129.701 53.0987 129.567 53.5275 129.298 53.8995C129.04 54.2715 128.657 54.566 128.151 54.783C127.655 54.9897 127.04 55.093 126.306 55.093C125.635 55.093 124.989 54.9897 124.369 54.783C123.759 54.5763 123.279 54.3128 122.927 53.9925L123.392 53.1245C123.713 53.4242 124.136 53.6722 124.663 53.8685C125.201 54.0545 125.759 54.1475 126.337 54.1475C127.143 54.1475 127.717 54.008 128.058 53.729C128.409 53.4397 128.585 53.0987 128.585 52.706C128.585 52.3753 128.487 52.117 128.29 51.931C128.094 51.7347 127.836 51.5797 127.515 51.466C127.195 51.342 126.844 51.2387 126.461 51.156C126.079 51.0733 125.697 50.9803 125.314 50.877C124.932 50.7737 124.576 50.6342 124.245 50.4585C123.925 50.2828 123.666 50.0503 123.47 49.761C123.284 49.4717 123.191 49.0893 123.191 48.614C123.191 48.1387 123.32 47.715 123.578 47.343C123.837 46.971 124.214 46.6765 124.71 46.4595C125.206 46.2425 125.816 46.134 126.539 46.134C127.056 46.134 127.562 46.2012 128.058 46.3355C128.564 46.4595 128.998 46.6507 129.36 46.909L128.957 47.808C128.585 47.5497 128.187 47.3688 127.763 47.2655C127.34 47.1518 126.921 47.095 126.508 47.095C125.743 47.095 125.18 47.2397 124.818 47.529C124.467 47.808 124.291 48.1542 124.291 48.5675C124.291 48.8982 124.39 49.1617 124.586 49.358C124.782 49.544 125.041 49.699 125.361 49.823C125.681 49.9367 126.033 50.0348 126.415 50.1175C126.808 50.2002 127.195 50.2932 127.577 50.3965C127.96 50.4998 128.311 50.6393 128.631 50.815C128.952 50.9803 129.21 51.2077 129.406 51.497C129.603 51.7863 129.701 52.1583 129.701 52.613ZM136.962 50.102H141.674V51.0165H136.962V50.102ZM137.148 54.07H142.402V55H136.032V46.2425H142.216V47.1725H137.148V54.07ZM148.841 55V46.2425H152.235C153 46.2425 153.651 46.3613 154.188 46.599C154.736 46.8367 155.16 47.1828 155.459 47.6375C155.759 48.0818 155.909 48.6243 155.909 49.265C155.909 49.885 155.759 50.4223 155.459 50.877C155.16 51.3317 154.736 51.6778 154.188 51.9155C153.651 52.1532 153 52.272 152.235 52.272H149.461L149.957 51.776V55H148.841ZM154.839 55L152.545 51.8225H153.77L156.048 55H154.839ZM149.957 51.8845L149.523 51.3575H152.189C153.036 51.3575 153.682 51.1767 154.126 50.815C154.571 50.443 154.793 49.9263 154.793 49.265C154.793 48.5933 154.571 48.0767 154.126 47.715C153.682 47.3533 153.036 47.1725 152.189 47.1725H149.523L149.957 46.6455V51.8845ZM165.039 55L161.117 46.2425H162.311L165.938 54.4265H165.271L168.929 46.2425H170.061L166.139 55H165.039ZM175.913 55V46.2425H177.029V55H175.913ZM188.115 55.093C187.226 55.093 186.425 54.9018 185.712 54.5195C185.009 54.1268 184.451 53.5947 184.038 52.923C183.635 52.241 183.434 51.4712 183.434 50.6135C183.434 49.7558 183.635 48.9912 184.038 48.3195C184.451 47.6478 185.009 47.1157 185.712 46.723C186.425 46.3303 187.226 46.134 188.115 46.134C188.817 46.134 189.448 46.2425 190.006 46.4595C190.564 46.6765 191.044 47.002 191.447 47.436L190.734 48.1645C190.383 47.8028 189.99 47.5393 189.556 47.374C189.122 47.1983 188.652 47.1105 188.146 47.1105C187.464 47.1105 186.849 47.2655 186.301 47.5755C185.753 47.8752 185.325 48.2885 185.015 48.8155C184.705 49.3425 184.55 49.9418 184.55 50.6135C184.55 51.2852 184.705 51.8897 185.015 52.427C185.325 52.954 185.753 53.3673 186.301 53.667C186.849 53.9667 187.464 54.1165 188.146 54.1165C188.652 54.1165 189.122 54.0338 189.556 53.8685C189.99 53.7032 190.383 53.4345 190.734 53.0625L191.447 53.791C191.044 54.225 190.558 54.5505 189.99 54.7675C189.432 54.9845 188.807 55.093 188.115 55.093ZM198.601 50.102H203.313V51.0165H198.601V50.102ZM198.787 54.07H204.042V55H197.671V46.2425H203.856V47.1725H198.787V54.07ZM216.293 52.613C216.293 53.0987 216.159 53.5275 215.89 53.8995C215.632 54.2715 215.249 54.566 214.743 54.783C214.247 54.9897 213.632 55.093 212.899 55.093C212.227 55.093 211.581 54.9897 210.961 54.783C210.351 54.5763 209.871 54.3128 209.52 53.9925L209.985 53.1245C210.305 53.4242 210.729 53.6722 211.256 53.8685C211.793 54.0545 212.351 54.1475 212.93 54.1475C213.736 54.1475 214.309 54.008 214.65 53.729C215.001 53.4397 215.177 53.0987 215.177 52.706C215.177 52.3753 215.079 52.117 214.883 51.931C214.686 51.7347 214.428 51.5797 214.108 51.466C213.787 51.342 213.436 51.2387 213.054 51.156C212.671 51.0733 212.289 50.9803 211.907 50.877C211.524 50.7737 211.168 50.6342 210.837 50.4585C210.517 50.2828 210.258 50.0503 210.062 49.761C209.876 49.4717 209.783 49.0893 209.783 48.614C209.783 48.1387 209.912 47.715 210.171 47.343C210.429 46.971 210.806 46.6765 211.302 46.4595C211.798 46.2425 212.408 46.134 213.131 46.134C213.648 46.134 214.154 46.2012 214.65 46.3355C215.156 46.4595 215.59 46.6507 215.952 46.909L215.549 47.808C215.177 47.5497 214.779 47.3688 214.356 47.2655C213.932 47.1518 213.513 47.095 213.1 47.095C212.335 47.095 211.772 47.2397 211.411 47.529C211.059 47.808 210.884 48.1542 210.884 48.5675C210.884 48.8982 210.982 49.1617 211.178 49.358C211.374 49.544 211.633 49.699 211.953 49.823C212.273 49.9367 212.625 50.0348 213.007 50.1175C213.4 50.2002 213.787 50.2932 214.17 50.3965C214.552 50.4998 214.903 50.6393 215.224 50.815C215.544 50.9803 215.802 51.2077 215.999 51.497C216.195 51.7863 216.293 52.1583 216.293 52.613Z" fill="#111827"/>
<path d="M60 38.5H218V37.5H60V38.5Z" fill="#111827" mask="url(#path-1-inside-1_58_60)"/>
<path d="M73.6719 24C73.6719 23.6146 73.6146 23.2708 73.5 22.9688C73.3854 22.6562 73.1771 22.3698 72.875 22.1094C72.5729 21.849 72.1458 21.5885 71.5938 21.3281C71.0417 21.0573 70.3177 20.7812 69.4219 20.5C68.401 20.1667 67.4271 19.7917 66.5 19.375C65.5833 18.9479 64.7656 18.4531 64.0469 17.8906C63.3281 17.3281 62.7604 16.6719 62.3438 15.9219C61.9375 15.1719 61.7344 14.2969 61.7344 13.2969C61.7344 12.3281 61.9479 11.4531 62.375 10.6719C62.8021 9.89062 63.401 9.22396 64.1719 8.67188C64.9427 8.10938 65.849 7.68229 66.8906 7.39062C67.9323 7.08854 69.0781 6.9375 70.3281 6.9375C71.9948 6.9375 73.4583 7.23438 74.7188 7.82812C75.9896 8.41146 76.9792 9.23438 77.6875 10.2969C78.3958 11.349 78.75 12.5729 78.75 13.9688H73.6875C73.6875 13.3542 73.5573 12.8125 73.2969 12.3438C73.0469 11.8646 72.6615 11.4896 72.1406 11.2188C71.6302 10.9479 70.9896 10.8125 70.2188 10.8125C69.4688 10.8125 68.8385 10.9271 68.3281 11.1562C67.8281 11.375 67.4479 11.6771 67.1875 12.0625C66.9375 12.4479 66.8125 12.8698 66.8125 13.3281C66.8125 13.6927 66.9062 14.026 67.0938 14.3281C67.2917 14.6198 67.5729 14.8958 67.9375 15.1562C68.3125 15.4062 68.7708 15.6458 69.3125 15.875C69.8542 16.1042 70.474 16.3229 71.1719 16.5312C72.3906 16.9167 73.4688 17.3438 74.4062 17.8125C75.3542 18.2812 76.151 18.8125 76.7969 19.4062C77.4427 20 77.9271 20.6719 78.25 21.4219C78.5833 22.1719 78.75 23.0208 78.75 23.9688C78.75 24.9792 78.5521 25.875 78.1562 26.6562C77.7708 27.4375 77.2083 28.1042 76.4688 28.6562C75.7396 29.1979 74.8646 29.6094 73.8438 29.8906C72.8229 30.1719 71.6823 30.3125 70.4219 30.3125C69.276 30.3125 68.1458 30.1667 67.0312 29.875C65.9167 29.5729 64.9062 29.1146 64 28.5C63.1042 27.8854 62.3854 27.1042 61.8438 26.1562C61.3125 25.1979 61.0469 24.0625 61.0469 22.75H66.1406C66.1406 23.4375 66.2396 24.0208 66.4375 24.5C66.6354 24.9688 66.9167 25.349 67.2812 25.6406C67.6562 25.9323 68.1094 26.1406 68.6406 26.2656C69.1719 26.3906 69.7656 26.4531 70.4219 26.4531C71.1823 26.4531 71.7969 26.349 72.2656 26.1406C72.7448 25.9219 73.099 25.625 73.3281 25.25C73.5573 24.875 73.6719 24.4583 73.6719 24ZM97.0156 16.4062V20.3438H85.2344V16.4062H97.0156ZM86.8438 7.25V30H81.75V7.25H86.8438ZM100.531 7.25V30H95.4531V7.25H100.531ZM104.312 7.25H113.047C114.786 7.25 116.292 7.51042 117.562 8.03125C118.844 8.55208 119.828 9.32292 120.516 10.3438C121.203 11.3646 121.547 12.625 121.547 14.125C121.547 15.375 121.344 16.4375 120.938 17.3125C120.531 18.1875 119.958 18.9115 119.219 19.4844C118.49 20.0573 117.635 20.5208 116.656 20.875L115 21.7812H107.562L107.531 17.8281H113.062C113.823 17.8281 114.453 17.6927 114.953 17.4219C115.453 17.151 115.828 16.7708 116.078 16.2812C116.339 15.7812 116.469 15.1979 116.469 14.5312C116.469 13.8438 116.339 13.25 116.078 12.75C115.818 12.25 115.432 11.8698 114.922 11.6094C114.422 11.3385 113.797 11.2031 113.047 11.2031H109.406V30H104.312V7.25ZM116.906 30L111.797 19.8906L117.172 19.875L122.359 29.7656V30H116.906ZM140.469 26.0625V30H128.359V26.0625H140.469ZM130.094 7.25V30H125V7.25H130.094ZM138.906 16.4062V20.2188H128.359V16.4062H138.906ZM140.484 7.25V11.2031H128.359V7.25H140.484ZM158.438 26.0625V30H146.328V26.0625H158.438ZM148.062 7.25V30H142.969V7.25H148.062ZM156.875 16.4062V20.2188H146.328V16.4062H156.875ZM158.453 7.25V11.2031H146.328V7.25H158.453Z" fill="#111827"/>
<path d="M180.703 24C180.703 23.6146 180.646 23.2708 180.531 22.9688C180.417 22.6562 180.208 22.3698 179.906 22.1094C179.604 21.849 179.177 21.5885 178.625 21.3281C178.073 21.0573 177.349 20.7812 176.453 20.5C175.432 20.1667 174.458 19.7917 173.531 19.375C172.615 18.9479 171.797 18.4531 171.078 17.8906C170.359 17.3281 169.792 16.6719 169.375 15.9219C168.969 15.1719 168.766 14.2969 168.766 13.2969C168.766 12.3281 168.979 11.4531 169.406 10.6719C169.833 9.89062 170.432 9.22396 171.203 8.67188C171.974 8.10938 172.88 7.68229 173.922 7.39062C174.964 7.08854 176.109 6.9375 177.359 6.9375C179.026 6.9375 180.49 7.23438 181.75 7.82812C183.021 8.41146 184.01 9.23438 184.719 10.2969C185.427 11.349 185.781 12.5729 185.781 13.9688H180.719C180.719 13.3542 180.589 12.8125 180.328 12.3438C180.078 11.8646 179.693 11.4896 179.172 11.2188C178.661 10.9479 178.021 10.8125 177.25 10.8125C176.5 10.8125 175.87 10.9271 175.359 11.1562C174.859 11.375 174.479 11.6771 174.219 12.0625C173.969 12.4479 173.844 12.8698 173.844 13.3281C173.844 13.6927 173.938 14.026 174.125 14.3281C174.323 14.6198 174.604 14.8958 174.969 15.1562C175.344 15.4062 175.802 15.6458 176.344 15.875C176.885 16.1042 177.505 16.3229 178.203 16.5312C179.422 16.9167 180.5 17.3438 181.438 17.8125C182.385 18.2812 183.182 18.8125 183.828 19.4062C184.474 20 184.958 20.6719 185.281 21.4219C185.615 22.1719 185.781 23.0208 185.781 23.9688C185.781 24.9792 185.583 25.875 185.188 26.6562C184.802 27.4375 184.24 28.1042 183.5 28.6562C182.771 29.1979 181.896 29.6094 180.875 29.8906C179.854 30.1719 178.714 30.3125 177.453 30.3125C176.307 30.3125 175.177 30.1667 174.062 29.875C172.948 29.5729 171.938 29.1146 171.031 28.5C170.135 27.8854 169.417 27.1042 168.875 26.1562C168.344 25.1979 168.078 24.0625 168.078 22.75H173.172C173.172 23.4375 173.271 24.0208 173.469 24.5C173.667 24.9688 173.948 25.349 174.312 25.6406C174.688 25.9323 175.141 26.1406 175.672 26.2656C176.203 26.3906 176.797 26.4531 177.453 26.4531C178.214 26.4531 178.828 26.349 179.297 26.1406C179.776 25.9219 180.13 25.625 180.359 25.25C180.589 24.875 180.703 24.4583 180.703 24ZM198.234 11.5781L192.359 30H186.922L195.344 7.25H198.781L198.234 11.5781ZM203.109 30L197.219 11.5781L196.609 7.25H200.094L208.547 30H203.109ZM202.859 21.5312V25.4688H191V21.5312H202.859ZM215.859 7.25V30H210.781V7.25H215.859Z" fill="#F97316"/>
<g clip-path="url(#clip0_58_60)">
<path d="M29.8768 51.9781C29.377 52.385 28.8746 52.7046 28.3691 52.946C28.0257 52.9827 27.6801 53.0096 27.3327 53.03V49.0009C26.5018 48.3209 25.6661 47.6147 24.8277 46.889V53.0307C24.4804 53.0096 24.1347 52.9826 23.7922 52.9459C23.2866 52.7045 22.7835 52.3848 22.2837 51.978C20.6545 50.6521 19.1296 48.4138 17.9603 45.533H23.285C22.3774 44.7216 21.469 43.8858 20.5607 43.0281H17.0846C16.6695 41.6476 16.3353 40.1586 16.0809 38.5971C15.0918 37.5737 14.1312 36.5479 13.1983 35.5238C13.4079 38.1902 13.8375 40.7196 14.4776 43.0281H8.07915C6.28766 40.1326 5.17707 36.7764 4.96666 33.1706H11.1092C10.3834 32.3323 9.67721 31.4965 8.99799 30.6656H4.96677C5.05314 29.1881 5.29868 27.7562 5.6713 26.3773C4.8208 25.217 4.02324 24.0738 3.28781 22.9542C2.19431 25.7315 1.58691 28.7535 1.58691 31.9189C1.58765 45.4465 12.5518 56.4098 26.0795 56.4106C29.2441 56.4106 32.2661 55.8032 35.0424 54.7106C33.5511 53.7296 32.0164 52.6394 30.4558 51.4579C30.2641 51.6429 30.0717 51.8192 29.8768 51.9781ZM11.1223 46.8762C10.6934 46.4472 10.2857 45.9971 9.89511 45.5331H15.2907C15.6926 46.629 16.1346 47.6728 16.6295 48.6317C17.2125 49.7586 17.8584 50.7836 18.5637 51.692C15.7473 50.6213 13.2179 48.9701 11.1223 46.8762Z" fill="#F97316"/>
<path d="M8.27319 15.1108C8.80813 16.0689 9.41637 17.0671 10.0859 18.0952C10.4202 17.7071 10.7594 17.3238 11.1222 16.961C13.2219 14.8629 15.757 13.2084 18.5799 12.1378C17.2679 13.8224 16.1647 15.9123 15.2865 18.3032H10.2189C10.7553 19.1201 11.3335 19.9568 11.9458 20.808H14.4842C14.2535 21.6389 14.0553 22.5034 13.8767 23.3872C14.5478 24.2499 15.25 25.1223 15.9805 26.0014C16.244 24.1602 16.6141 22.4111 17.0969 20.8079H24.8278V30.6655H20.069C20.843 31.5029 21.6355 32.3387 22.4468 33.1705H24.8278V35.5515C25.6595 36.362 26.4953 37.1562 27.3328 37.9292V33.1705H36.5878C36.485 36.7664 35.9395 40.1227 35.0646 43.028H33.2307C34.4343 43.9975 35.6223 44.91 36.7844 45.7571C36.8129 45.6804 36.8463 45.6103 36.8748 45.5329H42.2656C41.8742 45.9968 41.4673 46.447 41.0383 46.8759C40.6763 47.2379 40.2962 47.582 39.9081 47.9163C40.9348 48.5849 41.9311 49.1916 42.8869 49.7265C47.6171 45.2614 50.5738 38.937 50.5738 31.9188C50.5728 18.3912 39.608 7.42638 26.0795 7.42554C19.0612 7.42638 12.7384 10.3822 8.27319 15.1108ZM44.0813 43.0282H37.6762C38.5031 40.0478 39.0037 36.7127 39.1008 33.1707H47.1938C46.9834 36.7764 45.8728 40.1326 44.0813 43.0282ZM44.0796 20.808C45.872 23.7036 46.9825 27.0607 47.1937 30.6656H39.0925C38.9947 27.1267 38.5088 23.7867 37.6819 20.808H44.0796ZM41.0373 16.961C41.4662 17.3899 41.8731 17.8392 42.2637 18.3032H36.8698C36.4678 17.2081 36.025 16.1644 35.5309 15.2054C34.9478 14.0793 34.302 13.0544 33.5975 12.1452C36.4131 13.2158 38.9418 14.8678 41.0373 16.961ZM27.3327 10.8062C27.6808 10.8274 28.0266 10.8543 28.3698 10.891C28.8755 11.1316 29.3769 11.4513 29.8768 11.8581C31.506 13.1832 33.03 15.4223 34.1993 18.3031H27.3327V10.8062ZM27.3327 20.808H35.075C35.95 23.7125 36.4922 27.0729 36.5958 30.6656H27.3327V20.808ZM22.2837 11.8581C22.7835 11.4512 23.285 11.1316 23.7906 10.8902C24.1338 10.8535 24.4796 10.8266 24.8277 10.8054V18.3032H17.9741C18.2505 17.6206 18.5409 16.9618 18.8548 16.3552C19.861 14.4046 21.045 12.87 22.2837 11.8581Z" fill="#F97316"/>
<path d="M53.0566 48.7448C52.5494 47.3772 51.8449 45.899 50.9822 44.3317C50.3927 45.5076 49.7241 46.6385 48.9803 47.7133C49.3579 48.4936 49.6743 49.2275 49.9246 49.9043C50.4342 51.2701 50.6641 52.4092 50.66 53.1709C50.66 53.5321 50.6119 53.8036 50.5491 53.9863C50.4856 54.1697 50.4187 54.2652 50.342 54.3443C50.2645 54.4193 50.1699 54.4853 49.9856 54.5498C49.8038 54.6117 49.5323 54.6598 49.171 54.6598C48.4518 54.663 47.3951 54.46 46.1303 54.0074C44.8632 53.5581 43.3849 52.8707 41.7631 51.9689C36.2028 48.8785 28.9807 43.2668 21.8597 36.1409C14.7338 29.02 9.1221 21.7978 6.03081 16.2366C5.12905 14.6147 4.44245 13.1372 3.99231 11.87C3.54059 10.6054 3.33671 9.54866 3.33998 8.82936C3.33998 8.46729 3.38892 8.19581 3.45094 8.01472C3.51454 7.83047 3.58066 7.73671 3.65639 7.65845C3.73634 7.58104 3.83084 7.51406 4.0152 7.45057C4.19702 7.38856 4.4685 7.33962 4.83142 7.33962C5.59216 7.33561 6.73133 7.56553 8.09473 8.07358C8.77394 8.3247 9.51117 8.64268 10.2956 9.021C11.3704 8.27734 12.4988 7.60877 13.6755 7.0192C12.105 6.15394 10.6234 5.44867 9.25351 4.94147C7.65039 4.3519 6.19492 4.00449 4.83152 3.99963C4.1831 4.00058 3.55029 4.08211 2.94363 4.28683C2.33866 4.49059 1.76122 4.8282 1.2941 5.29785C0.826031 5.76339 0.48927 6.33999 0.28698 6.94422C0.0823711 7.55003 0.00084375 8.182 0 8.82947C0.00411328 10.1179 0.314719 11.4869 0.845543 12.9881C1.37879 14.4877 2.14281 16.1153 3.11238 17.8602C6.43433 23.8216 12.1945 31.1955 19.4981 38.5024C26.8051 45.8061 34.1789 51.5661 40.1395 54.8882C41.8853 55.8577 43.5129 56.6217 45.0125 57.155C46.5136 57.6851 47.8827 57.9957 49.171 57.9998C49.8185 57.9998 50.4504 57.9175 51.0564 57.7136C51.6598 57.5107 52.2362 57.1747 52.7026 56.7066C53.1724 56.2385 53.5099 55.6612 53.713 55.0578C53.9176 54.4511 53.9993 53.8183 54 53.171C53.9951 51.8059 53.6477 50.3496 53.0566 48.7448Z" fill="#F97316"/>
</g>
<defs>
<clipPath id="clip0_58_60">
<rect width="54" height="54" fill="white" transform="translate(0 4)"/>
</clipPath>
</defs>
</svg>
